<?xml version="1.0" standalone="no"?>
<!DOCTYPE svg PUBLIC "-//W3C//DTD SVG 20010904//EN"
 "http://www.w3.org/TR/2001/REC-SVG-20010904/DTD/svg10.dtd">
<svg version="1.0" xmlns="http://www.w3.org/2000/svg"
 width="357.000000pt" height="357.000000pt" viewBox="0 0 357.000000 357.000000"
 preserveAspectRatio="xMidYMid meet">
<metadata>
Created by potrace 1.11, written by Peter Selinger 2001-2013
</metadata>
<g transform="translate(0.000000,357.000000) scale(0.100000,-0.100000)"
fill="#000000" stroke="none">
<path d="M1080 3371 c0 -6 -20 -13 -45 -17 -25 -3 -45 -10 -45 -14 0 -4 -18
-10 -40 -14 -22 -3 -40 -11 -40 -16 0 -6 -9 -10 -20 -10 -11 0 -20 -4 -20 -9
0 -5 -22 -12 -50 -16 -27 -4 -50 -11 -50 -16 0 -5 -9 -9 -20 -9 -11 0 -20 -7
-20 -15 0 -8 -4 -15 -10 -15 -5 0 -10 -7 -10 -15 0 -8 -4 -15 -9 -15 -5 0 -12
-20 -15 -45 -4 -25 -11 -45 -15 -45 -5 0 -11 -18 -15 -40 -3 -22 -10 -40 -15
-40 -5 0 -12 -20 -15 -45 -4 -25 -11 -45 -17 -45 -5 0 -9 -11 -9 -25 0 -14 -4
-25 -10 -25 -5 0 -13 -18 -16 -40 -4 -22 -10 -40 -14 -40 -4 0 -10 -19 -14
-42 -4 -23 -12 -46 -19 -50 -8 -5 -13 -56 -16 -163 -2 -85 -7 -155 -11 -155
-4 0 -11 -126 -15 -280 -4 -154 -11 -280 -16 -280 -5 0 -9 -63 -9 -140 0 -77
-4 -140 -9 -140 -5 0 -12 -126 -16 -280 -4 -154 -11 -280 -16 -280 -5 0 -9
-66 -9 -146 l0 -146 32 -31 c19 -20 33 -27 35 -20 3 7 27 15 54 19 l49 7 0
108 c0 66 4 109 10 109 6 0 10 42 10 105 0 58 4 105 9 105 5 0 12 88 16 195 4
107 11 195 15 195 4 0 11 27 15 60 4 33 11 60 15 60 5 0 12 29 15 65 4 36 11
65 16 65 5 0 9 14 9 30 0 17 4 30 9 30 5 0 12 27 16 60 4 33 10 60 15 60 4 0
11 29 15 65 3 36 11 65 16 65 5 0 9 14 9 30 0 53 -18 32 -25 -30 -4 -33 -10
-60 -15 -60 -4 0 -11 -29 -15 -65 -3 -36 -11 -65 -16 -65 -5 0 -9 -13 -9 -30
0 -16 -4 -30 -9 -30 -5 0 -13 -29 -16 -65 -4 -36 -11 -65 -15 -65 -4 0 -11
-26 -15 -57 -4 -32 -12 -61 -18 -65 -6 -4 -13 -55 -15 -127 -3 -67 -8 -121
-13 -121 -5 0 -9 -45 -9 -100 0 -55 -4 -100 -9 -100 -5 0 -12 -92 -16 -205
l-7 -205 -23 0 c-13 0 -25 -4 -27 -8 -7 -19 -56 -22 -74 -5 -15 15 -16 41 -9
302 4 158 11 288 16 289 5 2 9 66 9 143 0 76 4 139 9 139 5 0 12 126 16 280 4
154 11 280 15 280 4 0 11 124 15 275 4 151 11 275 15 275 4 0 11 20 14 45 4
25 11 45 16 45 4 0 11 23 15 50 4 28 11 50 16 50 5 0 9 7 9 15 0 8 4 15 9 15
5 0 12 20 15 45 4 25 11 45 15 45 5 0 11 18 15 40 3 22 10 40 15 40 5 0 12 20
15 45 4 25 11 45 17 45 5 0 9 11 9 25 0 14 4 25 9 25 5 0 12 11 15 25 5 20 15
26 46 31 22 4 40 10 40 14 0 4 20 11 45 14 25 4 45 11 45 17 0 5 7 9 15 9 8 0
15 4 15 9 0 5 21 12 48 16 26 4 50 12 54 18 10 17 180 16 185 0 3 -7 27 -15
54 -19 27 -4 49 -10 49 -15 0 -5 11 -9 25 -9 14 0 25 -4 25 -9 0 -5 23 -12 50
-16 28 -4 50 -10 50 -15 0 -4 23 -10 50 -14 28 -4 50 -11 50 -15 0 -5 23 -12
50 -16 28 -4 50 -10 50 -15 0 -4 106 -11 235 -15 129 -4 235 -11 235 -16 0 -5
52 -9 115 -9 63 0 115 -4 115 -9 0 -5 59 -11 131 -13 112 -3 132 -6 140 -20 6
-10 15 -18 20 -18 6 0 17 -6 24 -12 33 -30 45 -38 55 -38 5 0 10 -5 10 -10 0
-6 8 -14 18 -17 9 -4 27 -17 39 -30 12 -13 28 -23 35 -23 8 0 21 -9 31 -20 9
-11 23 -20 31 -20 8 0 17 -7 20 -16 9 -22 8 -24 -9 -24 -8 0 -15 5 -15 10 0 6
-6 10 -14 10 -8 0 -16 7 -20 15 -3 8 -15 15 -26 15 -11 0 -20 5 -20 10 0 19
-33 10 -56 -15 -13 -14 -26 -25 -29 -25 -7 0 -31 -19 -53 -42 -9 -10 -21 -18
-26 -18 -5 0 -19 -11 -32 -25 -13 -14 -29 -25 -36 -25 -7 -1 -24 -14 -38 -30
-13 -17 -28 -30 -33 -30 -6 0 -20 -11 -33 -25 -13 -14 -30 -25 -38 -25 -24 0
-29 -56 -24 -258 3 -129 8 -187 16 -190 7 -2 12 -21 12 -43 0 -21 4 -39 9 -39
5 0 12 -38 16 -85 4 -47 11 -85 15 -85 5 0 12 -25 15 -55 4 -30 11 -55 16 -55
5 0 9 -11 9 -25 0 -22 -4 -25 -40 -25 -22 0 -40 -4 -40 -9 0 -5 -43 -12 -95
-16 -52 -4 -95 -11 -95 -15 0 -4 -45 -11 -100 -15 -55 -3 -100 -11 -100 -16 0
-5 -31 -9 -70 -9 -39 0 -70 4 -70 10 0 5 -18 13 -40 16 -22 4 -40 10 -40 15 0
5 -18 12 -40 15 -22 4 -40 10 -40 15 0 5 -7 9 -15 9 -8 0 -15 7 -15 15 0 8 4
15 9 15 5 0 11 18 15 40 3 22 10 40 15 40 5 0 11 18 15 40 3 22 12 40 19 40 9
0 9 2 0 8 -6 4 -14 28 -18 55 -4 26 -11 47 -16 47 -4 0 -11 20 -15 45 -3 25
-10 45 -14 45 -5 0 -11 23 -15 50 -4 28 -11 50 -16 50 -5 0 -9 9 -9 20 0 11
-4 20 -10 20 -5 0 -10 11 -10 25 0 22 -4 25 -35 25 -19 0 -35 -4 -35 -9 0 -5
-36 -12 -80 -16 -44 -4 -80 -11 -80 -16 0 -5 -17 -9 -39 -9 -42 0 -51 -13 -51
-77 0 -18 -4 -33 -10 -33 -5 0 -10 -20 -10 -45 0 -25 -4 -45 -10 -45 -5 0 -10
-22 -10 -50 0 -27 5 -50 10 -50 6 0 10 -16 10 -35 0 -19 -4 -35 -9 -35 -5 0
-12 -36 -16 -80 -4 -44 -11 -80 -15 -80 -4 0 -11 -36 -15 -80 -4 -44 -11 -80
-15 -80 -5 0 -11 -34 -15 -75 -4 -41 -11 -75 -15 -75 -4 0 -11 -36 -15 -80 -4
-44 -11 -80 -16 -80 -5 0 -9 -18 -9 -40 0 -22 -4 -40 -9 -40 -4 0 -12 -33 -16
-72 -3 -40 -12 -76 -18 -80 -9 -5 -13 -92 -16 -303 -2 -244 -5 -295 -17 -295
-8 0 -14 5 -14 10 0 6 -11 10 -24 10 -12 0 -35 11 -50 25 -24 22 -26 30 -26
110 0 47 4 85 9 85 5 0 12 76 16 170 4 93 11 170 15 170 4 0 11 79 15 175 4
96 11 175 16 175 5 0 9 38 9 84 0 46 4 86 9 88 11 3 13 68 12 406 l-1 232 -40
0 c-29 0 -40 -4 -40 -15 0 -8 -4 -15 -10 -15 -5 0 -10 -6 -10 -14 0 -8 -6 -21
-14 -28 -7 -8 -17 -24 -20 -36 -4 -12 -12 -22 -17 -22 -5 0 -9 -6 -9 -14 0 -8
-7 -16 -15 -20 -8 -3 -15 -15 -15 -26 0 -11 -4 -20 -10 -20 -5 0 -10 -7 -10
-15 0 -9 -6 -18 -14 -21 -8 -3 -17 -16 -20 -30 -4 -13 -11 -24 -16 -24 -6 0
-10 -6 -10 -14 0 -8 -6 -16 -12 -19 -7 -2 -10 -8 -6 -12 9 -10 33 15 42 43 4
12 12 22 17 22 5 0 9 7 9 15 0 9 7 18 15 21 8 3 17 21 21 40 3 19 14 36 24 39
10 3 21 17 24 30 4 14 11 25 16 25 6 0 10 6 10 14 0 8 6 21 13 28 7 7 16 21
20 31 4 10 17 17 32 17 l25 0 0 -310 c0 -200 -4 -310 -10 -310 -6 0 -10 -26
-10 -57 0 -93 -12 -223 -21 -223 -14 0 -129 -119 -129 -133 0 -8 -6 -17 -13
-20 -10 -4 -12 3 -9 24 2 16 8 29 12 29 5 0 11 13 15 30 4 16 11 30 16 30 5 0
9 9 9 20 0 11 5 20 10 20 6 0 10 7 10 15 0 26 -39 18 -46 -10 -3 -14 -10 -25
-14 -25 -5 0 -11 -13 -15 -30 -6 -26 -10 -29 -31 -24 -18 5 -24 2 -24 -10 0
-9 -4 -16 -10 -16 -5 0 -10 7 -10 15 0 8 5 15 10 15 6 0 10 28 10 65 0 37 4
65 10 65 6 0 10 7 10 15 0 8 -3 15 -6 15 -17 0 -33 -33 -39 -83 -4 -32 -11
-57 -16 -57 -5 0 -9 -13 -9 -30 0 -22 -4 -28 -15 -24 -8 4 -15 12 -15 20 0 8
-9 14 -19 14 -11 0 -21 6 -24 13 -2 6 -8 8 -13 4 -5 -4 -4 -11 2 -15 6 -4 15
-29 19 -57 4 -27 12 -53 18 -57 15 -9 14 -167 0 -177 -6 -3 -14 -36 -17 -73
-4 -38 -12 -68 -17 -68 -5 0 -9 -16 -9 -35 0 -19 -4 -35 -10 -35 -5 0 -10 -20
-10 -45 0 -37 3 -45 19 -45 16 0 19 11 25 70 4 39 11 70 16 70 5 0 12 32 16
70 3 39 10 70 14 70 5 0 12 29 15 65 8 68 19 84 28 38 7 -35 -3 -123 -14 -123
-4 0 -11 -30 -15 -67 -3 -38 -10 -70 -15 -73 -5 -3 -11 -38 -15 -78 -6 -61 -4
-72 8 -72 12 0 17 17 22 70 4 39 11 70 15 70 5 0 12 32 15 70 4 39 11 70 17
70 5 0 9 14 9 30 0 17 5 30 10 30 6 0 10 7 10 15 0 8 -4 15 -10 15 -5 0 -10 7
-10 15 0 8 4 15 9 15 5 0 13 10 17 22 3 12 45 60 91 106 l85 85 -7 -164 c-4
-90 -11 -166 -15 -169 -4 -3 -11 -81 -15 -173 l-7 -168 34 -33 c20 -19 49 -36
71 -40 l37 -7 0 -194 c0 -167 2 -195 15 -195 8 0 15 -4 15 -10 0 -5 6 -10 14
-10 8 0 16 -5 18 -12 5 -15 71 -15 76 0 2 7 10 12 18 12 8 0 14 4 14 10 0 5
17 13 39 16 l39 6 7 444 c4 244 11 444 15 444 5 0 11 23 15 50 4 28 11 50 16
50 5 0 9 7 9 15 0 8 4 15 9 15 5 0 12 18 16 40 4 22 10 40 15 40 4 0 11 16 14
35 4 19 11 35 15 35 5 0 11 18 15 40 3 22 10 40 15 40 5 0 11 18 15 40 3 22
11 40 16 40 6 0 10 11 10 25 0 14 4 25 10 25 5 0 13 18 16 40 4 22 10 40 15
40 4 0 11 16 15 35 3 19 10 35 14 35 5 0 11 18 15 40 4 22 11 40 16 40 5 0 9
7 9 15 0 8 5 15 10 15 6 0 10 7 10 16 0 13 7 15 43 9 23 -4 44 -11 45 -16 2
-5 21 -12 43 -15 21 -4 39 -10 39 -14 0 -4 12 -11 27 -15 15 -3 31 -12 35 -18
6 -9 10 -9 16 -1 4 7 46 15 95 19 48 4 87 11 87 15 0 4 47 11 105 15 58 4 105
11 105 16 0 5 7 9 15 9 8 0 15 -4 15 -10 0 -5 -4 -10 -9 -10 -5 0 -12 -49 -16
-110 -4 -60 -11 -110 -16 -110 -5 0 -9 -22 -9 -50 0 -27 -4 -50 -9 -50 -5 0
-12 -48 -16 -107 -4 -62 -12 -111 -18 -115 -8 -5 -13 -113 -16 -363 -3 -328
-2 -355 14 -355 9 0 23 -6 31 -14 15 -15 86 -11 92 6 2 4 20 8 41 8 24 0 42 7
54 20 9 11 24 20 32 20 8 0 15 5 15 10 0 6 -4 10 -9 10 -6 0 -13 32 -17 70 -3
39 -11 70 -15 70 -5 0 -9 117 -9 260 0 158 4 260 10 260 5 0 12 16 16 35 3 19
10 35 14 35 4 0 11 16 14 35 4 19 11 35 16 35 6 0 10 9 10 20 0 11 4 20 9 20
5 0 11 10 13 22 7 47 26 28 33 -32 4 -33 11 -60 15 -60 5 0 12 -25 15 -55 4
-30 11 -55 16 -55 5 0 9 -16 9 -35 0 -19 4 -35 9 -35 5 0 12 -25 16 -55 3 -30
10 -55 15 -55 4 0 11 -27 15 -60 4 -33 11 -60 15 -60 5 0 12 -29 15 -65 4 -36
11 -65 15 -65 5 0 11 -27 15 -60 4 -33 11 -60 16 -60 5 0 9 -11 9 -25 0 -14 4
-25 9 -25 5 0 12 -27 16 -60 4 -33 10 -60 15 -60 4 0 11 -29 15 -65 3 -36 10
-65 15 -65 4 0 11 -27 15 -60 l7 -60 39 0 c21 0 39 -4 39 -9 0 -5 25 -12 55
-16 30 -3 55 -11 55 -16 0 -5 5 -9 10 -9 6 0 10 7 10 15 0 8 9 23 20 32 11 10
20 22 20 28 0 6 11 19 25 29 14 10 25 25 25 33 0 8 12 25 26 38 15 14 22 25
16 25 -6 0 -14 25 -17 55 -4 30 -11 55 -15 55 -5 0 -12 29 -15 65 -4 36 -11
65 -16 65 -5 0 -9 14 -9 30 0 17 -4 30 -9 30 -5 0 -13 29 -16 65 -4 36 -11 65
-15 65 -5 0 -11 27 -15 60 -4 33 -11 60 -15 60 -5 0 -12 29 -15 65 -4 36 -11
65 -16 65 -5 0 -9 14 -9 30 0 17 -4 30 -9 30 -5 0 -12 26 -16 58 -4 31 -12 60
-17 63 -14 9 -16 178 -2 187 6 4 14 24 18 45 4 20 11 37 16 37 6 0 10 11 10
25 0 14 4 25 9 25 5 0 12 13 16 30 4 16 10 30 15 30 4 0 10 18 14 40 3 22 10
40 15 40 5 0 12 16 15 35 4 19 11 35 16 35 6 0 10 11 10 25 0 14 4 25 9 25 5
0 12 14 16 30 4 16 10 30 15 30 4 0 10 18 14 40 3 22 10 40 15 40 5 0 11 18
15 40 3 22 11 40 16 40 6 0 10 7 10 15 0 8 7 15 15 15 8 0 15 5 15 10 0 6 -4
10 -9 10 -5 0 -12 50 -16 110 -4 61 -11 110 -15 110 -4 0 -11 50 -15 110 -4
61 -11 110 -16 110 -5 0 -9 22 -9 49 0 42 -5 55 -32 84 -18 19 -43 37 -55 41
-11 4 -24 13 -27 21 -3 8 -11 15 -18 15 -8 0 -20 9 -28 20 -8 11 -20 20 -27
20 -7 0 -21 9 -30 20 -10 11 -22 20 -27 20 -5 0 -19 11 -32 25 -13 14 -30 25
-37 25 -8 0 -17 7 -21 15 -3 8 -11 15 -17 15 -6 0 -22 11 -35 25 -13 14 -29
25 -36 25 -8 0 -21 9 -31 20 -9 11 -23 20 -31 20 -8 0 -18 9 -21 20 -3 11 -12
20 -19 20 -7 0 -23 9 -36 20 -13 11 -29 20 -35 20 -7 0 -15 7 -19 15 -3 8 -12
15 -21 15 -8 0 -15 5 -15 10 0 6 -47 10 -120 10 -66 0 -120 4 -120 9 0 5 -106
12 -235 16 -129 4 -235 11 -235 15 0 4 -61 9 -136 12 -83 2 -138 8 -142 15 -4
6 -26 14 -49 18 -24 4 -43 10 -43 15 0 4 -25 11 -55 15 -30 3 -55 11 -55 16 0
5 -11 9 -25 9 -14 0 -25 4 -25 9 0 5 -25 13 -55 16 -30 4 -55 11 -55 16 0 4
-20 11 -45 15 -25 3 -45 10 -45 15 0 5 -22 9 -50 9 -27 0 -50 -4 -50 -9z
m1792 -454 c4 -7 9 -16 11 -22 2 -5 24 -9 48 -10 29 0 52 -6 63 -17 10 -10 24
-18 32 -18 14 0 18 -11 15 -37 -1 -7 5 -13 12 -13 8 0 17 -7 21 -15 3 -8 14
-15 25 -15 10 0 21 -7 25 -15 3 -8 12 -15 21 -15 8 0 15 -4 15 -9 0 -5 11 -12
25 -15 14 -4 25 -11 25 -16 0 -6 5 -10 11 -10 27 0 37 -31 44 -128 4 -56 11
-102 15 -102 4 0 11 -49 15 -110 4 -60 11 -110 16 -110 5 0 9 -25 9 -55 0 -30
-4 -55 -9 -55 -5 0 -11 -18 -15 -40 -3 -22 -10 -40 -15 -40 -5 0 -11 -18 -15
-40 -3 -22 -10 -40 -15 -40 -5 0 -11 -18 -15 -40 -3 -22 -11 -40 -16 -40 -6 0
-10 -7 -10 -15 0 -8 -4 -15 -9 -15 -5 0 -11 -18 -15 -40 -3 -22 -10 -40 -15
-40 -5 0 -12 -16 -15 -35 -4 -19 -11 -35 -15 -35 -5 0 -11 -18 -15 -40 -3 -22
-11 -40 -16 -40 -6 0 -10 -7 -10 -15 0 -8 -4 -15 -9 -15 -5 0 -11 -18 -15 -40
-3 -22 -10 -40 -15 -40 -5 0 -11 -18 -15 -40 -3 -22 -11 -40 -16 -40 -6 0 -10
-20 -10 -45 0 -25 4 -45 9 -45 5 0 12 -29 16 -65 3 -36 10 -65 15 -65 4 0 11
-27 15 -60 4 -33 11 -60 16 -60 5 0 9 -16 9 -35 0 -19 4 -35 9 -35 5 0 12 -27
16 -60 4 -33 11 -60 15 -60 5 0 12 -29 15 -65 4 -36 11 -65 15 -65 5 0 11 -27
15 -60 4 -33 11 -60 16 -60 5 0 9 -16 9 -35 0 -19 4 -35 9 -35 5 0 12 -27 16
-60 4 -33 11 -60 15 -60 4 0 10 -14 12 -31 4 -23 0 -36 -14 -48 -10 -8 -18
-23 -18 -33 0 -9 -9 -19 -19 -23 -11 -3 -23 -15 -26 -26 -11 -34 -43 -59 -75
-59 -16 0 -30 4 -30 9 0 5 -27 12 -60 16 -55 6 -60 9 -60 31 0 13 -4 24 -9 24
-5 0 -12 27 -16 60 -4 33 -10 60 -15 60 -4 0 -11 29 -15 65 -3 36 -10 65 -15
65 -4 0 -11 25 -15 55 -3 30 -11 55 -16 55 -5 0 -9 14 -9 30 0 17 -4 30 -9 30
-5 0 -13 29 -16 65 -4 36 -11 65 -15 65 -5 0 -11 27 -15 60 -4 33 -11 60 -15
60 -4 0 -11 28 -15 63 -4 34 -11 65 -16 68 -5 3 -12 29 -16 57 -3 29 -10 52
-14 52 -5 0 -9 14 -9 30 0 17 -4 30 -9 30 -5 0 -13 25 -16 55 -4 30 -11 55
-15 55 -4 0 -11 27 -15 60 -4 33 -11 60 -15 60 -5 0 -12 25 -15 55 -4 30 -11
55 -16 55 -5 0 -9 16 -9 35 0 19 -4 35 -9 35 -5 0 -12 27 -16 60 -4 33 -11 60
-15 60 -5 0 -12 25 -15 55 -4 30 -11 55 -16 55 -4 0 -11 32 -15 70 -3 39 -10
70 -14 70 -4 0 -11 36 -15 80 -4 44 -11 80 -16 80 -5 0 -9 18 -9 40 0 22 -4
40 -10 40 -6 0 -10 63 -10 169 0 159 1 170 19 176 11 3 23 15 26 25 3 10 16
22 28 26 11 4 32 20 46 35 14 16 33 29 43 29 9 0 19 9 23 19 3 11 15 23 26 26
11 4 33 20 50 36 16 16 36 29 44 29 8 0 15 4 15 9 0 5 7 17 17 26 18 18 82 13
95 -8z m228 -127 c0 -5 -4 -10 -10 -10 -5 0 -10 5 -10 10 0 6 5 10 10 10 6 0
10 -4 10 -10z m50 -30 c0 -5 -4 -10 -10 -10 -5 0 -10 5 -10 10 0 6 5 10 10 10
6 0 10 -4 10 -10z m-1464 -405 c3 -19 10 -35 15 -35 5 0 9 -11 9 -25 0 -14 4
-25 9 -25 5 0 12 -22 16 -50 4 -27 11 -50 15 -50 5 0 12 -20 16 -45 3 -25 10
-45 15 -45 5 0 9 -20 9 -45 0 -25 -4 -45 -9 -45 -5 0 -11 -18 -15 -40 -3 -22
-10 -40 -15 -40 -5 0 -11 -18 -15 -40 -3 -22 -11 -40 -16 -40 -6 0 -10 -11
-10 -25 0 -14 -4 -25 -10 -25 -5 0 -12 -16 -16 -35 -3 -19 -10 -35 -14 -35 -5
0 -11 -18 -15 -40 -4 -22 -11 -40 -16 -40 -5 0 -12 -18 -15 -40 -4 -22 -10
-40 -15 -40 -5 0 -9 -7 -9 -15 0 -8 -4 -15 -9 -15 -5 0 -11 -18 -15 -40 -3
-22 -10 -40 -15 -40 -5 0 -11 -18 -15 -40 -3 -22 -10 -40 -15 -40 -5 0 -11
-18 -15 -40 -3 -22 -10 -40 -15 -40 -5 0 -12 -18 -16 -40 -4 -22 -11 -40 -16
-40 -5 0 -9 -9 -9 -20 0 -11 -4 -20 -10 -20 -5 0 -12 -17 -16 -37 -4 -21 -12
-41 -18 -45 -7 -5 -12 -86 -14 -248 -2 -143 -7 -240 -13 -240 -5 0 -9 -86 -9
-215 0 -184 -2 -215 -15 -215 -8 0 -15 -4 -15 -9 0 -5 -13 -12 -30 -16 -16 -4
-30 -11 -30 -16 0 -5 -6 -9 -14 -9 -8 0 -17 -6 -20 -12 -5 -10 -7 -10 -12 0
-3 6 -12 12 -20 12 -8 0 -14 4 -14 9 0 5 -11 12 -25 15 l-25 6 0 455 c0 256 4
455 9 455 5 0 12 34 16 75 4 41 11 75 16 75 5 0 9 18 9 40 0 22 4 40 9 40 5 0
12 36 16 80 4 44 11 80 15 80 4 0 11 36 15 80 4 44 11 80 15 80 5 0 11 34 15
75 4 41 11 75 15 75 4 0 11 36 15 80 4 44 11 80 16 80 5 0 9 18 9 39 0 22 4
41 9 43 4 2 10 23 13 48 3 25 4 39 1 33 -11 -29 -23 -10 -23 37 0 28 4 50 9
50 4 0 12 37 16 82 3 44 13 87 20 94 7 7 43 16 79 20 36 4 66 10 66 15 0 7 33
12 112 17 24 2 28 -3 34 -33z m864 -565 c0 -11 4 -20 9 -20 5 0 13 -29 16 -65
4 -36 11 -65 16 -65 5 0 9 -13 9 -29 0 -16 5 -31 11 -33 16 -5 16 -111 1 -116
-7 -2 -12 -12 -12 -23 0 -10 -4 -19 -9 -19 -5 0 -12 -16 -15 -35 -4 -19 -11
-35 -15 -35 -5 0 -12 -17 -16 -37 -4 -21 -12 -41 -18 -45 -18 -11 -17 -620 1
-626 19 -6 15 -69 -7 -91 -21 -21 -139 -37 -190 -26 l-31 7 0 299 c0 168 4
299 9 299 5 0 12 50 16 110 4 61 11 110 16 110 5 0 9 25 9 55 0 30 4 55 9 55
5 0 12 47 16 105 4 58 11 105 16 105 5 0 9 24 9 53 0 28 4 57 8 63 8 14 39 21
100 23 36 1 42 -2 42 -19z m-1480 -500 c0 -5 -4 -10 -10 -10 -5 0 -10 5 -10
10 0 6 5 10 10 10 6 0 10 -4 10 -10z m-243 -107 c-3 -10 -5 -4 -5 12 0 17 2
24 5 18 2 -7 2 -21 0 -30z m-7 -38 c0 -8 -4 -15 -10 -15 -5 0 -10 7 -10 15 0
8 5 15 10 15 6 0 10 -7 10 -15z"/>
<path d="M2940 2871 c0 -5 10 -13 22 -17 12 -3 28 -13 36 -20 7 -8 21 -14 30
-13 14 0 14 2 2 6 -8 4 -21 12 -28 20 -7 7 -20 13 -28 13 -8 0 -14 5 -14 10 0
6 -4 10 -10 10 -5 0 -10 -4 -10 -9z"/>
<path d="M1070 3261 c0 -5 11 -12 25 -15 14 -4 25 -11 25 -16 0 -6 7 -10 15
-10 9 0 18 -6 21 -14 3 -8 16 -17 30 -20 13 -4 24 -11 24 -16 0 -6 7 -10 15
-10 8 0 15 -4 15 -10 0 -5 11 -12 25 -16 14 -3 25 -10 25 -15 0 -5 8 -13 18
-16 9 -4 23 -12 29 -19 7 -7 17 -14 22 -16 5 -1 12 -119 16 -260 7 -235 6
-258 -9 -258 -9 0 -16 -4 -16 -9 0 -5 -13 -12 -30 -16 -16 -4 -30 -10 -30 -15
0 -5 -13 -11 -30 -15 -16 -4 -30 -11 -30 -16 0 -5 -11 -11 -25 -15 -14 -3 -25
-10 -25 -15 0 -5 -7 -9 -15 -9 -8 0 -15 -4 -15 -10 0 -5 -16 -12 -35 -16 -19
-3 -35 -10 -35 -15 0 -5 -7 -9 -15 -9 -8 0 -15 -7 -15 -15 0 -8 4 -15 9 -15 5
0 11 7 15 15 3 8 15 15 26 15 11 0 20 4 20 9 0 5 14 12 30 16 17 4 30 11 30
16 0 5 7 9 15 9 8 0 15 4 15 10 0 5 11 12 25 16 14 3 25 10 25 14 0 5 14 11
30 15 17 4 30 10 30 15 0 5 14 11 30 15 17 4 30 11 30 16 0 5 6 9 13 9 9 0 11
31 9 132 -2 73 -8 135 -13 136 -5 2 -9 62 -9 133 0 108 -2 129 -15 129 -8 0
-15 4 -15 10 0 5 -11 12 -24 16 -14 3 -27 12 -30 20 -3 8 -11 14 -17 14 -6 0
-19 8 -28 19 -9 10 -26 21 -38 25 -13 4 -23 12 -23 17 0 5 -7 9 -15 9 -9 0
-18 6 -21 14 -3 8 -16 17 -30 20 -13 4 -24 11 -24 16 0 6 -7 10 -15 10 -8 0
-15 -4 -15 -9z"/>
<path d="M740 2655 c0 -9 9 -15 25 -15 28 0 34 15 9 24 -25 10 -34 7 -34 -9z"/>
<path d="M798 2203 c-2 -64 4 -338 8 -342 12 -13 16 26 17 193 2 143 -1 186
-10 186 -8 0 -14 -15 -15 -37z"/>
<path d="M901 1424 c0 -11 3 -14 6 -6 3 7 2 16 -1 19 -3 4 -6 -2 -5 -13z"/>
<path d="M690 1399 c0 -9 37 -49 45 -49 1 0 0 14 -3 30 -3 21 -10 30 -23 30
-11 0 -19 -5 -19 -11z"/>
<path d="M880 1360 c0 -16 5 -30 10 -30 6 0 10 14 10 30 0 17 -4 30 -10 30 -5
0 -10 -13 -10 -30z"/>
</g>
</svg>
